<svg width="384" height="154" viewBox="0 0 384 154" fill="none" xmlns="http://www.w3.org/2000/svg">
<path d="M2.46777 2C2.46777 2 12.4113 72 22.3549 72C32.2984 72 32.2984 2 42.242 2C52.1855 2 52.1855 34 62.1291 34C72.0726 34 72.0726 126 82.0162 126C91.9597 126 91.9597 72 101.903 72C111.847 72 111.847 92 121.79 92C131.734 92 131.734 58 141.677 58C151.621 58 151.621 80 161.565 80C171.508 80 171.508 78 181.452 78C191.395 78 191.395 112 201.339 112C211.282 112 211.282 104 221.226 104C231.169 104 231.169 96 241.113 96C251.056 96 251.056 132 261 132C270.944 132 270.944 134 280.887 134C290.831 134 290.831 56 300.774 56C310.718 56 310.718 76 320.661 76C330.605 76 330.605 110 340.548 110C350.492 110 350.492 152 360.436 152C370.379 152 381.427 130 381.427 130" stroke="white" stroke-width="4" stroke-linecap="round"/>
</svg>
