<svg width="601" height="92" viewBox="0 0 601 92" fill="none" xmlns="http://www.w3.org/2000/svg">
<line x1="2.09091" y1="33.4542" x2="2.09091" y2="58.5451" stroke="white" stroke-opacity="0.1" stroke-width="4.18182" stroke-linecap="round"/>
<line x1="10.4544" y1="33.4542" x2="10.4544" y2="58.5451" stroke="white" stroke-opacity="0.1" stroke-width="4.18182" stroke-linecap="round"/>
<line x1="18.8182" y1="33.4542" x2="18.8182" y2="58.5451" stroke="white" stroke-opacity="0.1" stroke-width="4.18182" stroke-linecap="round"/>
<line x1="27.1817" y1="29.2725" x2="27.1817" y2="62.7271" stroke="white" stroke-opacity="0.1" stroke-width="4.18182" stroke-linecap="round"/>
<line x1="35.5455" y1="29.2725" x2="35.5455" y2="62.7271" stroke="white" stroke-opacity="0.1" stroke-width="4.18182" stroke-linecap="round"/>
<line x1="43.909" y1="29.2725" x2="43.909" y2="62.7271" stroke="white" stroke-opacity="0.1" stroke-width="4.18182" stroke-linecap="round"/>
<line x1="52.2728" y1="29.2725" x2="52.2728" y2="62.7271" stroke="white" stroke-opacity="0.1" stroke-width="4.18182" stroke-linecap="round"/>
<line x1="60.6363" y1="29.2725" x2="60.6363" y2="62.7271" stroke="white" stroke-opacity="0.1" stroke-width="4.18182" stroke-linecap="round"/>
<line x1="69.0001" y1="29.2725" x2="69.0001" y2="62.7271" stroke="white" stroke-opacity="0.1" stroke-width="4.18182" stroke-linecap="round"/>
<line x1="77.3636" y1="35.545" x2="77.3636" y2="56.4541" stroke="white" stroke-opacity="0.1" stroke-width="4.18182" stroke-linecap="round"/>
<line x1="85.7274" y1="35.545" x2="85.7274" y2="56.4541" stroke="white" stroke-opacity="0.1" stroke-width="4.18182" stroke-linecap="round"/>
<line x1="94.0909" y1="35.545" x2="94.0909" y2="56.4541" stroke="white" stroke-opacity="0.1" stroke-width="4.18182" stroke-linecap="round"/>
<line x1="102.454" y1="31.3634" x2="102.454" y2="60.6361" stroke="white" stroke-opacity="0.1" stroke-width="4.18182" stroke-linecap="round"/>
<line x1="110.818" y1="31.3634" x2="110.818" y2="60.6361" stroke="white" stroke-opacity="0.1" stroke-width="4.18182" stroke-linecap="round"/>
<line x1="119.182" y1="31.3634" x2="119.182" y2="60.6361" stroke="white" stroke-opacity="0.1" stroke-width="4.18182" stroke-linecap="round"/>
<line x1="127.545" y1="27.1817" x2="127.546" y2="64.8181" stroke="white" stroke-opacity="0.1" stroke-width="4.18182" stroke-linecap="round"/>
<line x1="135.909" y1="27.1817" x2="135.909" y2="64.8181" stroke="white" stroke-opacity="0.1" stroke-width="4.18182" stroke-linecap="round"/>
<line x1="144.273" y1="27.1817" x2="144.273" y2="64.8181" stroke="white" stroke-opacity="0.1" stroke-width="4.18182" stroke-linecap="round"/>
<line x1="152.636" y1="23.0001" x2="152.636" y2="69.0001" stroke="white" stroke-opacity="0.1" stroke-width="4.18182" stroke-linecap="round"/>
<line x1="161" y1="23.0001" x2="161" y2="69.0001" stroke="white" stroke-opacity="0.1" stroke-width="4.18182" stroke-linecap="round"/>
<line x1="169.364" y1="23.0001" x2="169.364" y2="69.0001" stroke="white" stroke-opacity="0.1" stroke-width="4.18182" stroke-linecap="round"/>
<line x1="177.727" y1="16.7276" x2="177.727" y2="75.2731" stroke="white" stroke-opacity="0.1" stroke-width="4.18182" stroke-linecap="round"/>
<line x1="186.091" y1="16.7276" x2="186.091" y2="75.2731" stroke="white" stroke-opacity="0.1" stroke-width="4.18182" stroke-linecap="round"/>
<line x1="194.454" y1="16.7276" x2="194.454" y2="75.2731" stroke="white" stroke-opacity="0.1" stroke-width="4.18182" stroke-linecap="round"/>
<line x1="202.818" y1="33.4542" x2="202.818" y2="58.5451" stroke="white" stroke-opacity="0.1" stroke-width="4.18182" stroke-linecap="round"/>
<line x1="211.182" y1="33.4542" x2="211.182" y2="58.5451" stroke="white" stroke-opacity="0.1" stroke-width="4.18182" stroke-linecap="round"/>
<line x1="219.545" y1="33.4542" x2="219.546" y2="58.5451" stroke="white" stroke-opacity="0.1" stroke-width="4.18182" stroke-linecap="round"/>
<line x1="227.909" y1="37.6368" x2="227.909" y2="54.3641" stroke="white" stroke-opacity="0.1" stroke-width="4.18182" stroke-linecap="round"/>
<line x1="236.273" y1="37.6368" x2="236.273" y2="54.3641" stroke="white" stroke-width="4.18182" stroke-linecap="round"/>
<line x1="244.636" y1="37.6368" x2="244.636" y2="54.3641" stroke="white" stroke-width="4.18182" stroke-linecap="round"/>
<line x1="253" y1="31.3634" x2="253" y2="60.6361" stroke="white" stroke-width="4.18182" stroke-linecap="round"/>
<line x1="261.364" y1="31.3634" x2="261.364" y2="60.6361" stroke="white" stroke-width="4.18182" stroke-linecap="round"/>
<line x1="269.727" y1="31.3634" x2="269.727" y2="60.6361" stroke="white" stroke-width="4.18182" stroke-linecap="round"/>
<line x1="278.091" y1="37.6368" x2="278.091" y2="54.3641" stroke="white" stroke-width="4.18182" stroke-linecap="round"/>
<line x1="286.455" y1="37.6368" x2="286.455" y2="54.3641" stroke="white" stroke-width="4.18182" stroke-linecap="round"/>
<line x1="294.818" y1="37.6368" x2="294.818" y2="54.3641" stroke="white" stroke-width="4.18182" stroke-linecap="round"/>
<line x1="303.182" y1="20.9093" x2="303.182" y2="71.0911" stroke="white" stroke-width="4.18182" stroke-linecap="round"/>
<line x1="311.545" y1="20.9093" x2="311.546" y2="71.0911" stroke="white" stroke-width="4.18182" stroke-linecap="round"/>
<line x1="319.909" y1="20.9093" x2="319.909" y2="71.0911" stroke="white" stroke-width="4.18182" stroke-linecap="round"/>
<line x1="328.273" y1="16.7276" x2="328.273" y2="75.2731" stroke="white" stroke-width="4.18182" stroke-linecap="round"/>
<line x1="336.636" y1="16.7276" x2="336.636" y2="75.2731" stroke="white" stroke-width="4.18182" stroke-linecap="round"/>
<line x1="345" y1="16.7276" x2="345" y2="75.2731" stroke="white" stroke-width="4.18182" stroke-linecap="round"/>
<line x1="353.364" y1="2.09091" x2="353.364" y2="89.9091" stroke="white" stroke-width="4.18182" stroke-linecap="round"/>
<line x1="361.727" y1="2.09091" x2="361.727" y2="89.9091" stroke="white" stroke-width="4.18182" stroke-linecap="round"/>
<line x1="370.091" y1="2.09091" x2="370.091" y2="89.9091" stroke="white" stroke-width="4.18182" stroke-linecap="round"/>
<line x1="378.455" y1="14.6368" x2="378.455" y2="77.3641" stroke="white" stroke-width="4.18182" stroke-linecap="round"/>
<line x1="386.818" y1="14.6368" x2="386.818" y2="77.3641" stroke="white" stroke-width="4.18182" stroke-linecap="round"/>
<line x1="395.182" y1="14.6368" x2="395.182" y2="77.3641" stroke="white" stroke-width="4.18182" stroke-linecap="round"/>
<line x1="403.545" y1="29.2725" x2="403.546" y2="62.7271" stroke="white" stroke-width="4.18182" stroke-linecap="round"/>
<line x1="411.909" y1="29.2725" x2="411.909" y2="62.7271" stroke="white" stroke-width="4.18182" stroke-linecap="round"/>
<line x1="420.273" y1="29.2725" x2="420.273" y2="62.7271" stroke="white" stroke-width="4.18182" stroke-linecap="round"/>
<line x1="428.637" y1="33.4542" x2="428.637" y2="58.5451" stroke="white" stroke-width="4.18182" stroke-linecap="round"/>
<line x1="437" y1="33.4542" x2="437" y2="58.5451" stroke="white" stroke-width="4.18182" stroke-linecap="round"/>
<line x1="445.364" y1="29.2725" x2="445.364" y2="62.7271" stroke="white" stroke-width="4.18182" stroke-linecap="round"/>
<line x1="453.728" y1="29.2725" x2="453.728" y2="62.7271" stroke="white" stroke-width="4.18182" stroke-linecap="round"/>
<line x1="462.091" y1="29.2725" x2="462.091" y2="62.7271" stroke="white" stroke-width="4.18182" stroke-linecap="round"/>
<line x1="470.455" y1="29.2725" x2="470.455" y2="62.7271" stroke="white" stroke-width="4.18182" stroke-linecap="round"/>
<line x1="478.818" y1="35.545" x2="478.818" y2="56.4541" stroke="white" stroke-width="4.18182" stroke-linecap="round"/>
<line x1="487.182" y1="35.545" x2="487.182" y2="56.4541" stroke="white" stroke-width="4.18182" stroke-linecap="round"/>
<line x1="495.546" y1="31.3634" x2="495.546" y2="60.6361" stroke="white" stroke-width="4.18182" stroke-linecap="round"/>
<line x1="503.909" y1="31.3634" x2="503.909" y2="60.6361" stroke="white" stroke-width="4.18182" stroke-linecap="round"/>
<line x1="512.273" y1="27.1817" x2="512.273" y2="64.8181" stroke="white" stroke-width="4.18182" stroke-linecap="round"/>
<line x1="520.637" y1="27.1817" x2="520.637" y2="64.8181" stroke="white" stroke-width="4.18182" stroke-linecap="round"/>
<line x1="529" y1="23.0001" x2="529" y2="69.0001" stroke="white" stroke-width="4.18182" stroke-linecap="round"/>
<line x1="537.364" y1="23.0001" x2="537.364" y2="69.0001" stroke="white" stroke-width="4.18182" stroke-linecap="round"/>
<line x1="545.728" y1="16.7276" x2="545.728" y2="75.2731" stroke="white" stroke-width="4.18182" stroke-linecap="round"/>
<line x1="554.091" y1="16.7276" x2="554.091" y2="75.2731" stroke="white" stroke-width="4.18182" stroke-linecap="round"/>
<line x1="562.455" y1="33.4542" x2="562.455" y2="58.5451" stroke="white" stroke-width="4.18182" stroke-linecap="round"/>
<line x1="570.818" y1="33.4542" x2="570.818" y2="58.5451" stroke="white" stroke-width="4.18182" stroke-linecap="round"/>
<line x1="579.182" y1="37.6368" x2="579.182" y2="54.3641" stroke="white" stroke-width="4.18182" stroke-linecap="round"/>
<line x1="587.546" y1="37.6368" x2="587.546" y2="54.3641" stroke="white" stroke-width="4.18182" stroke-linecap="round"/>
<line x1="595.91" y1="31.3634" x2="595.909" y2="60.6361" stroke="white" stroke-width="4.18182" stroke-linecap="round"/>
</svg>
