<svg width="180" height="50" viewBox="0 0 180 50" fill="none" xmlns="http://www.w3.org/2000/svg">
<g clip-path="url(#clip0)">
<path d="M41.015 13.7523L19.5925 1.26382C14.0711 -1.95396 7.16992 2.06826 7.16992 8.50626V36.9291C7.16962 37.2553 7.25443 37.5758 7.41582 37.8583C7.5772 38.1409 7.80946 38.3755 8.08921 38.5387C8.36897 38.7018 8.68635 38.7876 9.0094 38.7875C9.33245 38.7874 9.64977 38.7013 9.92942 38.538L13.8743 36.24V8.96489C13.874 8.63873 13.9588 8.31824 14.1202 8.03569C14.2816 7.75314 14.5138 7.51849 14.7936 7.35538C15.0734 7.19227 15.3907 7.10645 15.7138 7.10656C16.0368 7.10667 16.3542 7.19271 16.6338 7.35601L37.2814 19.3859L41.0271 21.5687C42.3798 22.3512 43.483 23.5076 44.2068 24.9017C45.2052 22.9871 45.4305 20.7565 44.8354 18.6778C44.2403 16.5991 42.8711 14.8339 41.015 13.7523Z" fill="url(#paint0_linear)"/>
<path d="M7.16977 8.5063V36.9292C7.16947 37.2553 7.25428 37.5758 7.41566 37.8584C7.57705 38.1409 7.80931 38.3756 8.08906 38.5387C8.36882 38.7018 8.68619 38.7876 9.00924 38.7875C9.33229 38.7874 9.64962 38.7014 9.92926 38.5381L13.8742 36.24V8.96493C13.8726 8.63387 13.9595 8.30851 14.1259 8.02318C14.2922 7.73785 14.5317 7.50314 14.8191 7.34379L11.5835 1.1167C10.2468 1.82057 9.12777 2.88245 8.34922 4.18593C7.57066 5.48941 7.1626 6.98416 7.16977 8.5063Z" fill="url(#paint1_linear)"/>
<path d="M0.467774 12.4136V37.3857C0.467774 43.8212 7.3665 47.8434 12.8879 44.6257L37.2691 30.413C37.5491 30.2502 37.7816 30.0158 37.9434 29.7333C38.1051 29.4509 38.1902 29.1304 38.1902 28.8041C38.1902 28.4779 38.1051 28.1574 37.9434 27.8749C37.7816 27.5925 37.5491 27.358 37.2691 27.1952L33.3266 24.8972L9.92923 38.5335C9.64958 38.6968 9.33226 38.7828 9.00921 38.7829C8.68616 38.783 8.36878 38.6972 8.08903 38.5341C7.80927 38.371 7.57701 38.1364 7.41563 37.8538C7.25425 37.5713 7.16943 37.2508 7.16973 36.9246V12.8722V8.50663C7.16152 6.92923 7.59977 5.38228 8.43288 4.04785C6.29162 4.13219 4.26593 5.0506 2.78086 6.61036C1.29579 8.17012 0.466774 10.25 0.467774 12.4136Z" fill="url(#paint2_linear)"/>
<path d="M37.269 27.1999L33.3265 24.9019L9.92918 38.5382C9.64907 38.7047 9.32993 38.7925 9.00489 38.7925C8.67984 38.7925 8.36071 38.7047 8.08061 38.5382L4.51465 44.5739C5.77684 45.3412 7.22031 45.7513 8.69359 45.7612C10.1669 45.7712 11.6156 45.3805 12.8879 44.6303L37.269 30.4177C37.549 30.2549 37.7816 30.0204 37.9433 29.738C38.105 29.4555 38.1902 29.1351 38.1902 28.8088C38.1902 28.4826 38.105 28.1621 37.9433 27.8796C37.7816 27.5972 37.549 27.3627 37.269 27.1999Z" fill="url(#paint3_linear)"/>
<path d="M19.5898 48.5375L41.0147 36.049C46.5361 32.8313 46.5361 24.7868 41.0147 21.5789L16.6335 7.35394C16.3539 7.19064 16.0366 7.1046 15.7135 7.10449C15.3905 7.10438 15.0731 7.1902 14.7933 7.35331C14.5136 7.51642 14.2813 7.75107 14.1199 8.03362C13.9586 8.31618 13.8737 8.63666 13.874 8.96283V13.5614L37.269 27.1977C37.549 27.3605 37.7816 27.595 37.9433 27.8774C38.105 28.1599 38.1902 28.4804 38.1902 28.8066C38.1902 29.1329 38.105 29.4533 37.9433 29.7358C37.7816 30.0182 37.549 30.2527 37.269 30.4155L16.6214 42.4331L12.8757 44.6159C11.527 45.4113 9.98133 45.801 8.42065 45.7392C9.56074 47.5755 11.3622 48.8935 13.4456 49.4154C15.5289 49.9374 17.7317 49.6227 19.5898 48.5375Z" fill="url(#paint4_linear)"/>
<path d="M41.0149 21.5691L16.6338 7.34418C16.3541 7.18088 16.0368 7.09484 15.7137 7.09473C15.3907 7.09462 15.0733 7.18044 14.7936 7.34355C14.5138 7.50666 14.2815 7.74129 14.1202 8.02384C13.9588 8.3064 13.874 8.62689 13.8743 8.95306V13.5516L37.2692 27.1879C37.5926 27.3765 37.8507 27.661 38.0085 28.0028C38.1662 28.3446 38.216 28.7272 38.151 29.0985H45.1371C45.1995 27.5826 44.848 26.0785 44.121 24.7506C43.394 23.4227 42.3195 22.3221 41.0149 21.5691Z" fill="url(#paint5_linear)"/>
<path d="M13.8743 36.2401L16.2402 34.8618V24.9019H13.8743V36.2401Z" fill="url(#paint6_linear)"/>
<path d="M13.8743 13.5635V24.9017H16.2402V14.9418L13.8743 13.5635Z" fill="url(#paint7_linear)"/>
<path d="M19.4539 32.9881L20.8773 32.1567V21.8755L19.4539 20.9116V32.9881Z" fill="url(#paint8_linear)"/>
<path d="M25.5121 25.0146V29.4538L24.0886 30.2852V24.0508L25.5121 25.0146Z" fill="url(#paint9_linear)"/>
<path d="M33.322 24.9019H28.7236V27.5825L33.322 24.9019Z" fill="url(#paint10_linear)"/>
<path d="M33.3244 24.8994L28.7236 22.2188V24.9019H33.322L33.3244 24.8994Z" fill="url(#paint11_linear)"/>
<path d="M66.7733 17.9463L61.8421 24.5855H61.2786L56.4568 17.9243V29.0467H53.6001V13.7524H56.8891L61.6259 20.3278L66.3627 13.7524H69.6275V29.0467H66.7733V17.9463Z" fill="url(#paint12_linear)"/>
<path d="M85.5893 13.7524V22.5106C85.5893 27.0307 82.8444 29.3459 79.0307 29.3459C75.387 29.3459 72.3044 27.1189 72.3044 22.5106V13.7524H75.1392V22.5106C75.1392 25.2624 76.6963 26.7265 79.0526 26.7265C81.4088 26.7265 82.7521 25.1324 82.7521 22.5106V13.7524H85.5893Z" fill="url(#paint13_linear)"/>
<path d="M97.7228 17.4215C97.2054 16.5484 95.7795 15.7194 94.1326 15.7194C92.0144 15.7194 90.9966 16.6146 90.9966 17.7502C90.9966 19.0819 92.5536 19.4523 94.3706 19.673C97.5285 20.0654 100.47 20.8993 100.47 24.5413C100.47 27.948 97.4848 29.4122 94.1107 29.4122C91.0184 29.4122 88.6403 28.4507 87.5132 25.6548L89.8937 24.4114C90.5642 26.0914 92.3229 26.8345 94.1544 26.8345C95.9495 26.8345 97.6378 26.2017 97.6378 24.5413C97.6378 23.0992 96.1439 22.5106 94.1326 22.2923C91.0403 21.922 88.1861 21.0906 88.1861 17.6619C88.1861 14.5177 91.2565 13.2301 94.0475 13.208C96.4038 13.208 98.8475 13.8849 99.994 16.2443L97.7228 17.4215Z" fill="url(#paint14_linear)"/>
<path d="M102.698 29.0198V13.7329H105.533V29.0198H102.698Z" fill="url(#paint15_linear)"/>
<path d="M121.56 27.0969C120 28.6469 117.989 29.368 115.805 29.368C110.182 29.368 107.801 25.4586 107.789 21.4854C107.777 17.5123 110.34 13.4263 115.805 13.4263C116.838 13.4256 117.86 13.6319 118.813 14.0331C119.765 14.4343 120.63 15.0225 121.356 15.7636L119.454 17.6202C118.468 16.676 117.156 16.1585 115.798 16.1781C112.154 16.1781 110.563 18.9298 110.585 21.4854C110.607 24.041 112.057 26.6604 115.798 26.6604C117.216 26.6552 118.58 26.1054 119.612 25.1226L121.56 27.0969Z" fill="url(#paint16_linear)"/>
<path d="M125.796 13.7329V26.3489H133.584V29.0149H122.942V13.7329H125.796Z" fill="url(#paint17_linear)"/>
<path d="M146.344 26.1356H138.428L137.131 29.0198H134.038L140.84 13.7329H143.947L150.748 29.0198H147.622L146.344 26.1356ZM142.387 16.9409L139.574 23.45H145.198L142.387 16.9409Z" fill="url(#paint18_linear)"/>
<path d="M164.109 18.1647C164.109 19.3444 163.547 20.4799 162.141 21.1078C163.914 21.6547 164.57 23.5604 164.57 24.5144C164.57 27.9211 162.039 29.0149 158.903 29.0149H151.72V13.7329H158.9C161.874 13.7329 164.109 15.0867 164.109 18.1647ZM154.528 19.8815H158.9C160.696 19.8815 161.281 19.1163 161.281 18.2432C161.281 17.5442 160.717 16.3645 158.9 16.3645H154.528V19.8815ZM154.528 26.344H158.9C160.069 26.344 161.735 25.9516 161.735 24.5095C161.735 23.1336 160.069 22.415 158.9 22.415H154.528V26.344Z" fill="url(#paint19_linear)"/>
<path d="M176.366 17.4215C175.846 16.5484 174.422 15.7194 172.775 15.7194C170.655 15.7194 169.639 16.6146 169.639 17.7502C169.639 19.0819 171.196 19.4523 173.013 19.673C176.171 20.0654 179.113 20.8993 179.113 24.5413C179.113 27.948 176.128 29.4122 172.753 29.4122C169.659 29.4122 167.281 28.4507 166.156 25.6548L168.534 24.4114C169.205 26.0914 170.963 26.8345 172.797 26.8345C174.592 26.8345 176.278 26.2017 176.278 24.5413C176.278 23.0992 174.787 22.5106 172.775 22.2923C169.681 21.922 166.826 21.0906 166.826 17.6619C166.826 14.5177 169.897 13.2301 172.688 13.208C175.047 13.208 177.49 13.8849 178.637 16.2443L176.366 17.4215Z" fill="url(#paint20_linear)"/>
<path d="M54.7977 33.3609H53.6099V32.7109H56.6949V33.3609H55.5046V36.4977H54.7977V33.3609Z" fill="#F7F7F7"/>
<path d="M62.3597 36.5026V34.9721H60.516V36.5026H59.8091V32.7256H60.516V34.3222H62.3597V32.7256H63.0568V36.5026H62.3597Z" fill="#F7F7F7"/>
<path d="M69.1975 36.4977H66.3918V32.7109H69.1975V33.4026H67.0939V34.2732H69.1295V34.933H67.0987V35.7865H69.2023L69.1975 36.4977Z" fill="#F7F7F7"/>
<path d="M78.647 32.7061H79.3539V36.4977H78.9142L76.9442 33.952V36.5051H76.2373V32.711H76.8106L78.647 35.0581V32.7061Z" fill="#F7F7F7"/>
<path d="M85.4775 36.4977H82.6694V32.7109H85.4775V33.4026H83.3715V34.2732H85.4046V34.933H83.3739V35.7865H85.4799L85.4775 36.4977Z" fill="#F7F7F7"/>
<path d="M92.8041 36.4977H92.2065L91.7401 35.3082L91.3442 34.1114L90.9531 35.318L90.5061 36.4977H89.9061L88.5288 32.7109H89.3207L90.2049 35.4431L91.1158 32.7109H91.5773L92.515 35.4431L93.3725 32.7109H94.1498L92.8041 36.4977Z" fill="#F7F7F7"/>
<path d="M104.294 33.7557L103.079 35.3989H102.941L101.746 33.7508V36.5026H101.039V32.7256H101.853L103.026 34.3541L104.199 32.7256H105.008V36.5026H104.301L104.294 33.7557Z" fill="#F7F7F7"/>
<path d="M111.639 32.7256V34.8961C111.639 36.0145 110.959 36.5884 110.017 36.5884C109.116 36.5884 108.35 36.0366 108.35 34.8961V32.7256H109.052V34.8961C109.052 35.5779 109.439 35.9384 110.024 35.9384C110.609 35.9384 110.94 35.5436 110.94 34.8961V32.7256H111.639Z" fill="#F7F7F7"/>
<path d="M117.316 33.6259C117.212 33.4895 117.077 33.3802 116.922 33.3069C116.768 33.2335 116.598 33.1983 116.427 33.2041C115.9 33.2041 115.65 33.4248 115.65 33.6946C115.65 34.0232 116.036 34.1164 116.486 34.1704C117.268 34.2685 117.996 34.472 117.996 35.377C117.996 36.2207 117.268 36.5837 116.42 36.5837C115.655 36.5837 115.065 36.3385 114.788 35.6517L115.375 35.3452C115.471 35.5407 115.624 35.7025 115.812 35.8092C116.001 35.916 116.217 35.9628 116.432 35.9436C116.877 35.9436 117.294 35.7866 117.294 35.377C117.294 35.019 116.925 34.8743 116.427 34.8203C115.66 34.7271 114.953 34.5211 114.953 33.6725C114.953 32.8926 115.713 32.5738 116.41 32.5688C116.993 32.5688 117.598 32.7381 117.882 33.3218L117.316 33.6259Z" fill="#F7F7F7"/>
<path d="M121.225 36.4977V32.7109H121.927V36.4977H121.225Z" fill="#F7F7F7"/>
<path d="M128.575 36.0222C128.386 36.2064 128.163 36.3509 127.918 36.4473C127.673 36.5438 127.412 36.5901 127.149 36.5838C125.757 36.5838 125.167 35.6028 125.162 34.6217C125.149 34.3553 125.192 34.089 125.287 33.8402C125.383 33.5914 125.529 33.3656 125.716 33.1774C125.903 32.9892 126.128 32.8428 126.375 32.7477C126.621 32.6526 126.885 32.6109 127.149 32.6253C127.405 32.6255 127.659 32.6766 127.895 32.776C128.131 32.8753 128.346 33.0208 128.527 33.2041L128.055 33.6652C127.812 33.4303 127.486 33.3017 127.149 33.3071C126.976 33.2978 126.804 33.3255 126.642 33.3884C126.481 33.4514 126.334 33.5481 126.212 33.6722C126.09 33.7964 125.996 33.9452 125.935 34.1089C125.874 34.2725 125.848 34.4473 125.859 34.6217C125.851 34.794 125.879 34.9662 125.941 35.1269C126.003 35.2876 126.099 35.4332 126.22 35.5543C126.342 35.6753 126.488 35.7691 126.648 35.8294C126.808 35.8898 126.979 35.9153 127.149 35.9044C127.501 35.9029 127.838 35.765 128.092 35.5194L128.575 36.0222Z" fill="#F7F7F7"/>
<path d="M138.039 36.4977H135.231V32.7109H138.039V33.4026H135.931V34.2732H137.961V34.933H135.931V35.7865H138.037L138.039 36.4977Z" fill="#F7F7F7"/>
<path d="M144.568 36.0222C144.379 36.2064 144.156 36.3509 143.911 36.4473C143.667 36.5438 143.405 36.5901 143.143 36.5838C141.751 36.5838 141.16 35.6028 141.156 34.6217C141.143 34.3553 141.185 34.089 141.281 33.8402C141.376 33.5914 141.522 33.3656 141.709 33.1774C141.897 32.9892 142.121 32.8428 142.368 32.7477C142.615 32.6526 142.879 32.6109 143.143 32.6253C143.399 32.6255 143.652 32.6766 143.888 32.776C144.125 32.8753 144.339 33.0208 144.52 33.2041L144.049 33.6652C143.805 33.4301 143.48 33.3014 143.143 33.3071C142.97 33.2982 142.797 33.3262 142.636 33.3892C142.474 33.4523 142.328 33.549 142.206 33.6731C142.085 33.7972 141.99 33.9458 141.929 34.1093C141.868 34.2728 141.842 34.4474 141.853 34.6217C141.845 34.794 141.872 34.9662 141.935 35.1269C141.997 35.2876 142.092 35.4332 142.214 35.5543C142.335 35.6753 142.481 35.7691 142.641 35.8294C142.801 35.8898 142.972 35.9153 143.143 35.9044C143.495 35.9025 143.833 35.7648 144.088 35.5194L144.568 36.0222Z" fill="#F7F7F7"/>
<path d="M151.329 34.6263C151.329 35.6073 150.724 36.5883 149.405 36.5883C148.086 36.5883 147.476 35.6318 147.476 34.6263C147.476 33.6207 148.108 32.6299 149.405 32.6299C150.702 32.6299 151.339 33.6354 151.329 34.6263ZM148.171 34.641C148.188 35.264 148.518 35.9286 149.403 35.9286C150.287 35.9286 150.617 35.259 150.617 34.6361C150.617 34.0131 150.275 33.2847 149.403 33.2847C148.531 33.2847 148.156 34.0033 148.173 34.641H148.171Z" fill="#F7F7F7"/>
<path d="M156.991 32.7061H157.698V36.4977H157.258L155.286 33.952V36.5051H154.579V32.711H155.152L156.991 35.0581V32.7061Z" fill="#F7F7F7"/>
<path d="M164.762 34.6263C164.762 35.6073 164.157 36.5883 162.838 36.5883C161.519 36.5883 160.909 35.6318 160.909 34.6263C160.909 33.6207 161.543 32.6299 162.838 32.6299C164.133 32.6299 164.774 33.6354 164.762 34.6263ZM161.604 34.641C161.621 35.264 161.954 35.9286 162.836 35.9286C163.717 35.9286 164.05 35.259 164.05 34.6361C164.05 34.0131 163.708 33.2847 162.836 33.2847C161.963 33.2847 161.592 34.0033 161.606 34.641H161.604Z" fill="#F7F7F7"/>
<path d="M171.228 33.7557L170.014 35.3989H169.875L168.68 33.7508V36.5026H167.973V32.7256H168.787L169.96 34.3541L171.133 32.7256H171.942V36.5026H171.235L171.228 33.7557Z" fill="#F7F7F7"/>
<path d="M176.857 34.2732L177.853 32.711H178.705V32.7428L177.211 34.9354V36.4977H176.497V34.933L175.054 32.7404V32.7085H175.897L176.857 34.2732Z" fill="#F7F7F7"/>
</g>
<defs>
<linearGradient id="paint0_linear" x1="10.425" y1="17.9413" x2="35.1322" y2="31.8447" gradientUnits="userSpaceOnUse">
<stop stop-color="#1AE0E0"/>
<stop offset="0.14" stop-color="#1ADAE1"/>
<stop offset="0.32" stop-color="#1BC8E4"/>
<stop offset="0.54" stop-color="#1CABE9"/>
<stop offset="0.77" stop-color="#1D83F0"/>
<stop offset="1" stop-color="#1F55F8"/>
</linearGradient>
<linearGradient id="paint1_linear" x1="10.9956" y1="8.87419" x2="10.9956" y2="36.6202" gradientUnits="userSpaceOnUse">
<stop stop-color="#1AE0E0"/>
<stop offset="0.13" stop-color="#1AD8E1"/>
<stop offset="0.34" stop-color="#1BC1E5"/>
<stop offset="0.6" stop-color="#1C9CEC"/>
<stop offset="0.9" stop-color="#1E68F5"/>
<stop offset="1" stop-color="#1F55F8"/>
</linearGradient>
<linearGradient id="paint2_linear" x1="19.3397" y1="36.672" x2="19.2456" y2="8.64643" gradientUnits="userSpaceOnUse">
<stop stop-color="#EA06B1"/>
<stop offset="0.26" stop-color="#E706B3"/>
<stop offset="0.44" stop-color="#DE05BA"/>
<stop offset="0.6" stop-color="#CE04C5"/>
<stop offset="0.75" stop-color="#B803D6"/>
<stop offset="0.89" stop-color="#9B02EA"/>
<stop offset="1" stop-color="#7F00FF"/>
</linearGradient>
<linearGradient id="paint3_linear" x1="9.73241" y1="47.5881" x2="33.5752" y2="23.9757" gradientUnits="userSpaceOnUse">
<stop stop-color="#EA06B1"/>
<stop offset="0.35" stop-color="#E806B3"/>
<stop offset="0.52" stop-color="#E005B8"/>
<stop offset="0.66" stop-color="#D305C2"/>
<stop offset="0.77" stop-color="#C004D0"/>
<stop offset="0.88" stop-color="#A802E1"/>
<stop offset="0.97" stop-color="#8A01F7"/>
<stop offset="1" stop-color="#7F00FF"/>
</linearGradient>
<linearGradient id="paint4_linear" x1="30.8488" y1="19.9332" x2="6.78994" y2="34.1193" gradientUnits="userSpaceOnUse">
<stop stop-color="#A9E418"/>
<stop offset="0.2" stop-color="#A6E31A"/>
<stop offset="0.35" stop-color="#9CDF22"/>
<stop offset="0.49" stop-color="#8BD92F"/>
<stop offset="0.62" stop-color="#74D142"/>
<stop offset="0.75" stop-color="#56C65A"/>
<stop offset="0.87" stop-color="#30B877"/>
<stop offset="0.99" stop-color="#05A999"/>
<stop offset="1" stop-color="#00A79D"/>
</linearGradient>
<linearGradient id="paint5_linear" x1="17875.3" y1="13347.8" x2="14590.8" y2="11408.5" gradientUnits="userSpaceOnUse">
<stop stop-color="#A9E418"/>
<stop offset="0.2" stop-color="#A6E31A"/>
<stop offset="0.35" stop-color="#9CDF22"/>
<stop offset="0.49" stop-color="#8BD92F"/>
<stop offset="0.62" stop-color="#74D142"/>
<stop offset="0.75" stop-color="#56C65A"/>
<stop offset="0.87" stop-color="#30B877"/>
<stop offset="0.99" stop-color="#05A999"/>
<stop offset="1" stop-color="#00A79D"/>
</linearGradient>
<linearGradient id="paint6_linear" x1="949.236" y1="7604.07" x2="1390.04" y2="7512.1" gradientUnits="userSpaceOnUse">
<stop stop-color="#EA06B1"/>
<stop offset="0.35" stop-color="#E806B3"/>
<stop offset="0.52" stop-color="#E005B8"/>
<stop offset="0.66" stop-color="#D305C2"/>
<stop offset="0.77" stop-color="#C004D0"/>
<stop offset="0.88" stop-color="#A802E1"/>
<stop offset="0.97" stop-color="#8A01F7"/>
<stop offset="1" stop-color="#7F00FF"/>
</linearGradient>
<linearGradient id="paint7_linear" x1="1342.58" y1="7151.21" x2="1009.95" y2="7122.38" gradientUnits="userSpaceOnUse">
<stop stop-color="#A9E418"/>
<stop offset="0.2" stop-color="#A6E31A"/>
<stop offset="0.35" stop-color="#9CDF22"/>
<stop offset="0.49" stop-color="#8BD92F"/>
<stop offset="0.62" stop-color="#74D142"/>
<stop offset="0.75" stop-color="#56C65A"/>
<stop offset="0.87" stop-color="#30B877"/>
<stop offset="0.99" stop-color="#05A999"/>
<stop offset="1" stop-color="#00A79D"/>
</linearGradient>
<linearGradient id="paint8_linear" x1="564.954" y1="8329.04" x2="924.648" y2="8286.64" gradientUnits="userSpaceOnUse">
<stop stop-color="#EA06B1"/>
<stop offset="0.35" stop-color="#E806B3"/>
<stop offset="0.52" stop-color="#E005B8"/>
<stop offset="0.66" stop-color="#D305C2"/>
<stop offset="0.77" stop-color="#C004D0"/>
<stop offset="0.88" stop-color="#A802E1"/>
<stop offset="0.97" stop-color="#8A01F7"/>
<stop offset="1" stop-color="#7F00FF"/>
</linearGradient>
<linearGradient id="paint9_linear" x1="607.852" y1="4270.01" x2="866.506" y2="4210.95" gradientUnits="userSpaceOnUse">
<stop stop-color="#EA06B1"/>
<stop offset="0.35" stop-color="#E806B3"/>
<stop offset="0.52" stop-color="#E005B8"/>
<stop offset="0.66" stop-color="#D305C2"/>
<stop offset="0.77" stop-color="#C004D0"/>
<stop offset="0.88" stop-color="#A802E1"/>
<stop offset="0.97" stop-color="#8A01F7"/>
<stop offset="1" stop-color="#7F00FF"/>
</linearGradient>
<linearGradient id="paint10_linear" x1="1951.06" y1="1877.7" x2="2177.86" y2="1488.7" gradientUnits="userSpaceOnUse">
<stop stop-color="#EA06B1"/>
<stop offset="0.35" stop-color="#E806B3"/>
<stop offset="0.52" stop-color="#E005B8"/>
<stop offset="0.66" stop-color="#D305C2"/>
<stop offset="0.77" stop-color="#C004D0"/>
<stop offset="0.88" stop-color="#A802E1"/>
<stop offset="0.97" stop-color="#8A01F7"/>
<stop offset="1" stop-color="#7F00FF"/>
</linearGradient>
<linearGradient id="paint11_linear" x1="2625.12" y1="1693.56" x2="2192.74" y2="1385.61" gradientUnits="userSpaceOnUse">
<stop stop-color="#A9E418"/>
<stop offset="0.2" stop-color="#A6E31A"/>
<stop offset="0.35" stop-color="#9CDF22"/>
<stop offset="0.49" stop-color="#8BD92F"/>
<stop offset="0.62" stop-color="#74D142"/>
<stop offset="0.75" stop-color="#56C65A"/>
<stop offset="0.87" stop-color="#30B877"/>
<stop offset="0.99" stop-color="#05A999"/>
<stop offset="1" stop-color="#00A79D"/>
</linearGradient>
<linearGradient id="paint12_linear" x1="10011.3" y1="9184.03" x2="11921.7" y2="7181.85" gradientUnits="userSpaceOnUse">
<stop stop-color="#EA06B1"/>
<stop offset="0.26" stop-color="#E706B3"/>
<stop offset="0.44" stop-color="#DE05BA"/>
<stop offset="0.6" stop-color="#CE04C5"/>
<stop offset="0.75" stop-color="#B803D6"/>
<stop offset="0.89" stop-color="#9B02EA"/>
<stop offset="1" stop-color="#7F00FF"/>
</linearGradient>
<linearGradient id="paint13_linear" x1="8755.58" y1="9867.56" x2="10680.8" y2="8227.38" gradientUnits="userSpaceOnUse">
<stop stop-color="#EA06B1"/>
<stop offset="0.26" stop-color="#E706B3"/>
<stop offset="0.44" stop-color="#DE05BA"/>
<stop offset="0.6" stop-color="#CE04C5"/>
<stop offset="0.75" stop-color="#B803D6"/>
<stop offset="0.89" stop-color="#9B02EA"/>
<stop offset="1" stop-color="#7F00FF"/>
</linearGradient>
<linearGradient id="paint14_linear" x1="9005.54" y1="10814.6" x2="10982.2" y2="9233.99" gradientUnits="userSpaceOnUse">
<stop stop-color="#EA06B1"/>
<stop offset="0.26" stop-color="#E706B3"/>
<stop offset="0.44" stop-color="#DE05BA"/>
<stop offset="0.6" stop-color="#CE04C5"/>
<stop offset="0.75" stop-color="#B803D6"/>
<stop offset="0.89" stop-color="#9B02EA"/>
<stop offset="1" stop-color="#7F00FF"/>
</linearGradient>
<linearGradient id="paint15_linear" x1="2111.79" y1="10516.1" x2="2797.21" y2="10389" gradientUnits="userSpaceOnUse">
<stop stop-color="#EA06B1"/>
<stop offset="0.26" stop-color="#E706B3"/>
<stop offset="0.44" stop-color="#DE05BA"/>
<stop offset="0.6" stop-color="#CE04C5"/>
<stop offset="0.75" stop-color="#B803D6"/>
<stop offset="0.89" stop-color="#9B02EA"/>
<stop offset="1" stop-color="#7F00FF"/>
</linearGradient>
<linearGradient id="paint16_linear" x1="10198.3" y1="11348.8" x2="12170.7" y2="9644.88" gradientUnits="userSpaceOnUse">
<stop stop-color="#EA06B1"/>
<stop offset="0.26" stop-color="#E706B3"/>
<stop offset="0.44" stop-color="#DE05BA"/>
<stop offset="0.6" stop-color="#CE04C5"/>
<stop offset="0.75" stop-color="#B803D6"/>
<stop offset="0.89" stop-color="#9B02EA"/>
<stop offset="1" stop-color="#7F00FF"/>
</linearGradient>
<linearGradient id="paint17_linear" x1="9303.04" y1="9680.05" x2="11069.6" y2="8449.85" gradientUnits="userSpaceOnUse">
<stop stop-color="#A9E418"/>
<stop offset="0.2" stop-color="#A6E31A"/>
<stop offset="0.35" stop-color="#9CDF22"/>
<stop offset="0.49" stop-color="#8BD92F"/>
<stop offset="0.62" stop-color="#74D142"/>
<stop offset="0.75" stop-color="#56C65A"/>
<stop offset="0.87" stop-color="#30B877"/>
<stop offset="0.99" stop-color="#05A999"/>
<stop offset="1" stop-color="#00A79D"/>
</linearGradient>
<linearGradient id="paint18_linear" x1="15151.1" y1="10234.4" x2="17027.8" y2="8183.03" gradientUnits="userSpaceOnUse">
<stop stop-color="#A9E418"/>
<stop offset="0.2" stop-color="#A6E31A"/>
<stop offset="0.35" stop-color="#9CDF22"/>
<stop offset="0.49" stop-color="#8BD92F"/>
<stop offset="0.62" stop-color="#74D142"/>
<stop offset="0.75" stop-color="#56C65A"/>
<stop offset="0.87" stop-color="#30B877"/>
<stop offset="0.99" stop-color="#05A999"/>
<stop offset="1" stop-color="#00A79D"/>
</linearGradient>
<linearGradient id="paint19_linear" x1="11993.2" y1="10579.8" x2="13848.9" y2="9019.59" gradientUnits="userSpaceOnUse">
<stop stop-color="#A9E418"/>
<stop offset="0.2" stop-color="#A6E31A"/>
<stop offset="0.35" stop-color="#9CDF22"/>
<stop offset="0.49" stop-color="#8BD92F"/>
<stop offset="0.62" stop-color="#74D142"/>
<stop offset="0.75" stop-color="#56C65A"/>
<stop offset="0.87" stop-color="#30B877"/>
<stop offset="0.99" stop-color="#05A999"/>
<stop offset="1" stop-color="#00A79D"/>
</linearGradient>
<linearGradient id="paint20_linear" x1="12531.6" y1="11749.1" x2="14479.9" y2="10191.2" gradientUnits="userSpaceOnUse">
<stop stop-color="#A9E418"/>
<stop offset="0.2" stop-color="#A6E31A"/>
<stop offset="0.35" stop-color="#9CDF22"/>
<stop offset="0.49" stop-color="#8BD92F"/>
<stop offset="0.62" stop-color="#74D142"/>
<stop offset="0.75" stop-color="#56C65A"/>
<stop offset="0.87" stop-color="#30B877"/>
<stop offset="0.99" stop-color="#05A999"/>
<stop offset="1" stop-color="#00A79D"/>
</linearGradient>
<clipPath id="clip0">
<rect width="178.784" height="49.7872" fill="white" transform="translate(0.385254 0.106445)"/>
</clipPath>
</defs>
</svg>
